#N canvas 0 0 954 377 10;
#X obj 12 19 cnv 15 300 300 empty empty empty 20 12 0 14 -261682 -66577
0;
#X obj 52 98 vrpd_tracker Tracker0@localhost;
#X obj 52 46 tgl 15 0 empty empty empty 17 7 0 10 -262144 -1 -1 0 1
;
#X obj 52 68 metro 100;
#X obj 52 129 route 0 1;
#X floatatom 24 212 5 0 0 0 - - -;
#X floatatom 58 212 5 0 0 0 - - -;
#X floatatom 93 212 5 0 0 0 - - -;
#X text 127 129 Sensor ID;
#X text 107 26 TRACKER;
#X obj 52 182 unpack f f f f f f f;
#X floatatom 151 237 5 0 0 0 - - -;
#X floatatom 185 237 5 0 0 0 - - -;
#X floatatom 222 238 5 0 0 0 - - -;
#X floatatom 259 241 5 0 0 0 - - -;
#X text 182 262 Quaternion;
#X text 36 235 3D Position;
#X obj 320 18 cnv 15 300 300 empty empty empty 20 12 0 14 -204786 -66577
0;
#X obj 627 18 cnv 15 300 300 empty empty empty 20 12 0 14 -203904 -66577
0;
#X obj 346 115 vrpd_button Tracker0@localhost;
#X obj 346 54 tgl 15 0 empty empty empty 17 7 0 10 -262144 -1 -1 0
1;
#X obj 346 77 metro 100;
#X obj 346 196 tgl 15 0 empty empty empty 17 7 0 10 -262144 -1 -1 0
32;
#X obj 361 196 tgl 15 0 empty empty empty 17 7 0 10 -262144 -1 -1 0
4;
#X obj 730 50 tgl 15 0 empty empty empty 17 7 0 10 -262144 -1 -1 0
1;
#X obj 730 73 metro 100;
#X obj 730 111 vrpd_analog Tracker0@localhost;
#X obj 727 166 unpack f f f;
#X floatatom 778 203 5 0 0 0 - - -;
#X obj 346 144 route 0 1 2 3 4 5 6 7 8 9 10;
#X obj 376 196 tgl 15 0 empty empty empty 17 7 0 10 -262144 -1 -1 0
32;
#X obj 391 196 tgl 15 0 empty empty empty 17 7 0 10 -262144 -1 -1 0
4;
#X obj 406 196 tgl 15 0 empty empty empty 17 7 0 10 -262144 -1 -1 0
32;
#X obj 421 196 tgl 15 0 empty empty empty 17 7 0 10 -262144 -1 -1 0
4;
#X obj 436 196 tgl 15 0 empty empty empty 17 7 0 10 -262144 -1 -1 0
64;
#X obj 451 196 tgl 15 0 empty empty empty 17 7 0 10 -262144 -1 -1 0
4;
#X text 528 145 Button ID;
#X floatatom 678 202 5 0 0 0 - - -;
#X text 637 222 Number of channels;
#X text 775 224 Channel 1;
#X floatatom 842 203 5 0 0 0 - - -;
#X text 839 224 Channel 2;
#X text 404 24 BUTTON;
#X text 760 18 ANALOG;
#X connect 1 0 4 0;
#X connect 2 0 3 0;
#X connect 3 0 1 0;
#X connect 4 0 10 0;
#X connect 10 0 5 0;
#X connect 10 1 6 0;
#X connect 10 2 7 0;
#X connect 10 3 11 0;
#X connect 10 4 12 0;
#X connect 10 5 13 0;
#X connect 10 6 14 0;
#X connect 19 0 29 0;
#X connect 20 0 21 0;
#X connect 21 0 19 0;
#X connect 24 0 25 0;
#X connect 25 0 26 0;
#X connect 26 0 27 0;
#X connect 27 0 37 0;
#X connect 27 1 28 0;
#X connect 27 2 40 0;
#X connect 29 0 22 0;
#X connect 29 1 23 0;
#X connect 29 2 30 0;
#X connect 29 3 31 0;
#X connect 29 4 32 0;
#X connect 29 5 33 0;
#X connect 29 6 34 0;
#X connect 29 7 35 0;
